<svg width="90" height="93" viewBox="0 0 90 93" fill="none" xmlns="http://www.w3.org/2000/svg">
<path d="M70.9991 14.2027C57.8542 14.8798 54.2482 3.35469 43.1735 0.656418C31.3796 -2.21844 26.0565 4.93409 24.796 10.7821C23.8244 15.2902 21.7822 17.247 16.3997 18.5005C12.5634 19.2043 9.16398 21.198 10.0544 26.6666C10.9448 32.1352 9.13999 35.4005 6.45335 37.3567C3.76672 39.3133 1.26017 42.0908 0.378589 45.7093C-1.1146 51.8345 1.92086 58.2502 7.51533 61.0946C13.802 64.2231 17.1783 67.6478 16.7368 74.7507C16.6264 76.5259 17.3672 85.9707 26.3557 83.1157C28.6258 82.3949 38.017 77.5323 43.716 86.5571C45.135 88.8042 48.6489 91.0154 51.8598 91.7989C60.4704 93.8972 69.2738 87.5495 70.148 78.8093C71.0962 72.3422 72.2727 69.3097 79.2637 71.5685C86.1811 73.8035 90.3206 64.1755 86.4501 59.2362C81.0783 53.6694 87.4883 43.6579 89.5239 35.3041C92.3063 23.8856 82.4731 12.9591 70.9991 14.2027Z" fill="#FFBE98"/>
<path d="M24.6633 49.512C23.7566 50.6107 22.6313 51.16 21.2873 51.16C20.658 51.16 20.0873 51.0587 19.5753 50.856C19.0633 50.6427 18.6206 50.3493 18.2473 49.976C17.8846 49.592 17.602 49.1387 17.3993 48.616C17.1966 48.0827 17.0953 47.496 17.0953 46.856C17.0953 46.2053 17.202 45.6027 17.4153 45.048C17.6286 44.4933 17.9273 44.0187 18.3113 43.624C18.706 43.2293 19.17 42.92 19.7033 42.696C20.2473 42.472 20.8393 42.36 21.4793 42.36C22.514 42.36 23.314 42.6427 23.8793 43.208C24.4446 43.7627 24.7273 44.5627 24.7273 45.608C24.7273 45.7573 24.6953 45.848 24.6313 45.88C24.578 45.912 24.4446 45.928 24.2313 45.928H18.9673C18.946 46.0133 18.93 46.12 18.9193 46.248C18.9086 46.3653 18.9033 46.4987 18.9033 46.648C18.9033 47.2027 18.9673 47.7093 19.0953 48.168C19.234 48.616 19.426 49 19.6713 49.32C19.9273 49.64 20.226 49.8907 20.5673 50.072C20.9193 50.2427 21.3086 50.328 21.7353 50.328C22.1833 50.328 22.5993 50.232 22.9833 50.04C23.3673 49.8373 23.762 49.512 24.1673 49.064L24.6633 49.512ZM22.0233 45.192C22.2366 45.192 22.4073 45.1867 22.5353 45.176C22.6633 45.1653 22.7593 45.144 22.8233 45.112C22.8873 45.08 22.93 45.0373 22.9513 44.984C22.9726 44.92 22.9833 44.84 22.9833 44.744C22.9833 44.2533 22.8233 43.864 22.5033 43.576C22.194 43.2773 21.7673 43.128 21.2233 43.128C20.0713 43.128 19.3566 43.816 19.0793 45.192H22.0233ZM29.2112 48.44C29.2112 48.888 29.2219 49.24 29.2432 49.496C29.2645 49.752 29.3179 49.9493 29.4032 50.088C29.4992 50.216 29.6325 50.3013 29.8032 50.344C29.9739 50.3867 30.2139 50.4187 30.5232 50.44V51H26.2672V50.44C26.5765 50.4187 26.8219 50.3867 27.0032 50.344C27.1845 50.3013 27.3232 50.216 27.4192 50.088C27.5152 49.96 27.5739 49.7787 27.5952 49.544C27.6272 49.2987 27.6432 48.9733 27.6432 48.568V46.52C27.6432 45.912 27.6325 45.4053 27.6112 45C27.6005 44.5947 27.5739 44.3173 27.5312 44.168C27.4992 44.0293 27.4619 43.9227 27.4192 43.848C27.3765 43.7627 27.3072 43.6987 27.2112 43.656C27.1152 43.6027 26.9872 43.5707 26.8272 43.56C26.6779 43.5387 26.4805 43.528 26.2352 43.528V42.968L28.8432 42.36L29.0512 43.96H29.1312C29.6112 43.416 30.1125 43.016 30.6352 42.76C31.1685 42.4933 31.7552 42.36 32.3952 42.36C33.0672 42.36 33.6325 42.4987 34.0912 42.776C34.5499 43.0427 34.8699 43.432 35.0512 43.944H35.1152C35.5099 43.4427 35.9899 43.0533 36.5552 42.776C37.1205 42.4987 37.7232 42.36 38.3632 42.36C38.8645 42.36 39.3179 42.4453 39.7232 42.616C40.1392 42.776 40.4539 43 40.6672 43.288C40.8592 43.5333 40.9925 43.8587 41.0672 44.264C41.1525 44.6587 41.1952 45.2027 41.1952 45.896V48.44C41.1952 48.8773 41.2059 49.224 41.2272 49.48C41.2592 49.736 41.3179 49.9333 41.4032 50.072C41.4885 50.2107 41.6165 50.3013 41.7872 50.344C41.9685 50.3867 42.2139 50.4187 42.5232 50.44V51H38.2672V50.44C38.5659 50.4293 38.8059 50.4027 38.9872 50.36C39.1685 50.3067 39.3072 50.216 39.4032 50.088C39.4992 49.9493 39.5579 49.7627 39.5792 49.528C39.6112 49.2933 39.6272 48.9733 39.6272 48.568V46.552C39.6272 45.944 39.5952 45.432 39.5312 45.016C39.4672 44.5893 39.3605 44.248 39.2112 43.992C39.0619 43.7253 38.8645 43.5333 38.6192 43.416C38.3845 43.2987 38.0965 43.24 37.7552 43.24C37.2859 43.24 36.8432 43.3733 36.4272 43.64C36.0219 43.896 35.7019 44.2427 35.4672 44.68C35.4139 44.7867 35.3659 44.8933 35.3232 45C35.2912 45.096 35.2645 45.208 35.2432 45.336C35.2219 45.4533 35.2059 45.5973 35.1952 45.768C35.1952 45.9387 35.1952 46.152 35.1952 46.408V48.44C35.1952 48.8773 35.2059 49.224 35.2272 49.48C35.2485 49.736 35.3019 49.9333 35.3872 50.072C35.4832 50.2107 35.6219 50.3013 35.8032 50.344C35.9845 50.3867 36.2299 50.4187 36.5392 50.44V51H32.2832V50.44C32.5819 50.4187 32.8219 50.3867 33.0032 50.344C33.1845 50.3013 33.3179 50.216 33.4032 50.088C33.4992 49.96 33.5579 49.7787 33.5792 49.544C33.6112 49.2987 33.6272 48.9733 33.6272 48.568V46.552C33.6272 45.9333 33.5952 45.416 33.5312 45C33.4672 44.5733 33.3605 44.232 33.2112 43.976C33.0725 43.7093 32.8859 43.5227 32.6512 43.416C32.4165 43.2987 32.1285 43.24 31.7872 43.24C31.3072 43.24 30.8539 43.3733 30.4272 43.64C30.0112 43.896 29.6965 44.2427 29.4832 44.68C29.4299 44.7867 29.3819 44.8933 29.3392 45C29.3072 45.096 29.2805 45.208 29.2592 45.336C29.2379 45.4533 29.2219 45.5973 29.2112 45.768C29.2112 45.9387 29.2112 46.152 29.2112 46.408V48.44ZM46.5751 48.44C46.5751 48.888 46.5857 49.24 46.6071 49.496C46.6284 49.752 46.6817 49.9493 46.7671 50.088C46.8631 50.216 46.9964 50.3013 47.1671 50.344C47.3377 50.3867 47.5777 50.4187 47.8871 50.44V51H43.6311V50.44C43.9404 50.4187 44.1857 50.3867 44.3671 50.344C44.5484 50.3013 44.6871 50.216 44.7831 50.088C44.8791 49.96 44.9377 49.7787 44.9591 49.544C44.9911 49.2987 45.0071 48.9733 45.0071 48.568V46.52C45.0071 45.912 44.9964 45.4053 44.9751 45C44.9644 44.5947 44.9377 44.3173 44.8951 44.168C44.8631 44.0293 44.8257 43.9227 44.7831 43.848C44.7404 43.7627 44.6711 43.6987 44.5751 43.656C44.4791 43.6027 44.3511 43.5707 44.1911 43.56C44.0417 43.5387 43.8444 43.528 43.5991 43.528V42.968L46.2071 42.36L46.4151 43.96H46.4951C46.9751 43.416 47.4764 43.016 47.9991 42.76C48.5324 42.4933 49.1191 42.36 49.7591 42.36C50.4311 42.36 50.9964 42.4987 51.4551 42.776C51.9137 43.0427 52.2337 43.432 52.4151 43.944H52.4791C52.8737 43.4427 53.3537 43.0533 53.9191 42.776C54.4844 42.4987 55.0871 42.36 55.7271 42.36C56.2284 42.36 56.6817 42.4453 57.0871 42.616C57.5031 42.776 57.8177 43 58.0311 43.288C58.2231 43.5333 58.3564 43.8587 58.4311 44.264C58.5164 44.6587 58.5591 45.2027 58.5591 45.896V48.44C58.5591 48.8773 58.5697 49.224 58.5911 49.48C58.6231 49.736 58.6817 49.9333 58.7671 50.072C58.8524 50.2107 58.9804 50.3013 59.1511 50.344C59.3324 50.3867 59.5777 50.4187 59.8871 50.44V51H55.6311V50.44C55.9297 50.4293 56.1697 50.4027 56.3511 50.36C56.5324 50.3067 56.6711 50.216 56.7671 50.088C56.8631 49.9493 56.9217 49.7627 56.9431 49.528C56.9751 49.2933 56.9911 48.9733 56.9911 48.568V46.552C56.9911 45.944 56.9591 45.432 56.8951 45.016C56.8311 44.5893 56.7244 44.248 56.5751 43.992C56.4257 43.7253 56.2284 43.5333 55.9831 43.416C55.7484 43.2987 55.4604 43.24 55.1191 43.24C54.6497 43.24 54.2071 43.3733 53.7911 43.64C53.3857 43.896 53.0657 44.2427 52.8311 44.68C52.7777 44.7867 52.7297 44.8933 52.6871 45C52.6551 45.096 52.6284 45.208 52.6071 45.336C52.5857 45.4533 52.5697 45.5973 52.5591 45.768C52.5591 45.9387 52.5591 46.152 52.5591 46.408V48.44C52.5591 48.8773 52.5697 49.224 52.5911 49.48C52.6124 49.736 52.6657 49.9333 52.7511 50.072C52.8471 50.2107 52.9857 50.3013 53.1671 50.344C53.3484 50.3867 53.5937 50.4187 53.9031 50.44V51H49.6471V50.44C49.9457 50.4187 50.1857 50.3867 50.3671 50.344C50.5484 50.3013 50.6817 50.216 50.7671 50.088C50.8631 49.96 50.9217 49.7787 50.9431 49.544C50.9751 49.2987 50.9911 48.9733 50.9911 48.568V46.552C50.9911 45.9333 50.9591 45.416 50.8951 45C50.8311 44.5733 50.7244 44.232 50.5751 43.976C50.4364 43.7093 50.2497 43.5227 50.0151 43.416C49.7804 43.2987 49.4924 43.24 49.1511 43.24C48.6711 43.24 48.2177 43.3733 47.7911 43.64C47.3751 43.896 47.0604 44.2427 46.8471 44.68C46.7937 44.7867 46.7457 44.8933 46.7031 45C46.6711 45.096 46.6444 45.208 46.6231 45.336C46.6017 45.4533 46.5857 45.5973 46.5751 45.768C46.5751 45.9387 46.5751 46.152 46.5751 46.408V48.44ZM65.9869 46.264C65.3789 46.4987 64.8616 46.728 64.4349 46.952C64.0189 47.176 63.6829 47.4 63.4269 47.624C63.1709 47.848 62.9843 48.072 62.8669 48.296C62.7603 48.52 62.7069 48.7493 62.7069 48.984C62.7069 49.336 62.8243 49.624 63.0589 49.848C63.2936 50.072 63.6029 50.184 63.9869 50.184C64.2643 50.184 64.5203 50.1147 64.7549 49.976C65.0003 49.8373 65.2136 49.6507 65.3949 49.416C65.5763 49.1707 65.7203 48.888 65.8269 48.568C65.9336 48.2373 65.9869 47.8907 65.9869 47.528V46.264ZM65.9869 45.576V44.92C65.9869 43.6187 65.4323 42.968 64.3229 42.968C64.1416 42.968 63.9869 42.984 63.8589 43.016C63.7309 43.048 63.6243 43.1013 63.5389 43.176C63.4536 43.2507 63.3736 43.3573 63.2989 43.496C63.2349 43.6347 63.1709 43.8053 63.1069 44.008C62.9896 44.3173 62.8723 44.5253 62.7549 44.632C62.6483 44.728 62.4883 44.776 62.2749 44.776C61.7416 44.776 61.4749 44.5093 61.4749 43.976C61.4749 43.464 61.7469 43.0693 62.2909 42.792C62.8349 42.504 63.6083 42.36 64.6109 42.36C65.6776 42.36 66.4349 42.552 66.8829 42.936C67.3309 43.3093 67.5549 43.9493 67.5549 44.856V48.44C67.5549 49.656 67.7949 50.264 68.2749 50.264C68.4243 50.264 68.5683 50.248 68.7069 50.216C68.8456 50.1733 68.9629 50.072 69.0589 49.912L69.2829 50.296C69.1549 50.5413 68.9203 50.7493 68.5789 50.92C68.2376 51.08 67.8803 51.16 67.5069 51.16C67.0376 51.16 66.6856 51.0107 66.4509 50.712C66.2269 50.4133 66.1149 49.992 66.1149 49.448H66.0349C65.7576 49.9707 65.3736 50.3867 64.8829 50.696C64.3923 50.9947 63.8483 51.144 63.2509 51.144C62.5789 51.144 62.0509 50.9733 61.6669 50.632C61.2829 50.2907 61.0909 49.832 61.0909 49.256C61.0909 49 61.1336 48.7547 61.2189 48.52C61.3149 48.2853 61.4643 48.0613 61.6669 47.848C61.8696 47.6347 62.1363 47.4267 62.4669 47.224C62.7976 47.0107 63.2029 46.7973 63.6829 46.584L65.9869 45.576ZM70.5263 50.12C70.5263 49.8213 70.6276 49.5707 70.8303 49.368C71.033 49.1653 71.2783 49.064 71.5663 49.064C71.865 49.064 72.1156 49.1653 72.3183 49.368C72.521 49.5707 72.6223 49.8213 72.6223 50.12C72.6223 50.408 72.521 50.6533 72.3183 50.856C72.1156 51.0587 71.865 51.16 71.5663 51.16C71.2783 51.16 71.033 51.0587 70.8303 50.856C70.6276 50.6533 70.5263 50.408 70.5263 50.12Z" fill="black"/>
</svg>
