<svg width="75" height="75" viewBox="0 0 75 75" fill="none" xmlns="http://www.w3.org/2000/svg">
<circle cx="37.5" cy="37.5" r="37.5" fill="#FFBE98"/>
<path d="M16.6633 41.512C15.7566 42.6107 14.6313 43.16 13.2873 43.16C12.658 43.16 12.0873 43.0587 11.5753 42.856C11.0633 42.6427 10.6206 42.3493 10.2473 41.976C9.88465 41.592 9.60198 41.1387 9.39931 40.616C9.19665 40.0827 9.09531 39.496 9.09531 38.856C9.09531 38.2053 9.20198 37.6027 9.41531 37.048C9.62865 36.4933 9.92731 36.0187 10.3113 35.624C10.706 35.2293 11.17 34.92 11.7033 34.696C12.2473 34.472 12.8393 34.36 13.4793 34.36C14.514 34.36 15.314 34.6427 15.8793 35.208C16.4446 35.7627 16.7273 36.5627 16.7273 37.608C16.7273 37.7573 16.6953 37.848 16.6313 37.88C16.578 37.912 16.4446 37.928 16.2313 37.928H10.9673C10.946 38.0133 10.93 38.12 10.9193 38.248C10.9086 38.3653 10.9033 38.4987 10.9033 38.648C10.9033 39.2027 10.9673 39.7093 11.0953 40.168C11.234 40.616 11.426 41 11.6713 41.32C11.9273 41.64 12.226 41.8907 12.5673 42.072C12.9193 42.2427 13.3086 42.328 13.7353 42.328C14.1833 42.328 14.5993 42.232 14.9833 42.04C15.3673 41.8373 15.762 41.512 16.1673 41.064L16.6633 41.512ZM14.0233 37.192C14.2366 37.192 14.4073 37.1867 14.5353 37.176C14.6633 37.1653 14.7593 37.144 14.8233 37.112C14.8873 37.08 14.93 37.0373 14.9513 36.984C14.9726 36.92 14.9833 36.84 14.9833 36.744C14.9833 36.2533 14.8233 35.864 14.5033 35.576C14.194 35.2773 13.7673 35.128 13.2233 35.128C12.0713 35.128 11.3566 35.816 11.0793 37.192H14.0233ZM21.2112 40.44C21.2112 40.888 21.2219 41.24 21.2432 41.496C21.2645 41.752 21.3179 41.9493 21.4032 42.088C21.4992 42.216 21.6325 42.3013 21.8032 42.344C21.9739 42.3867 22.2139 42.4187 22.5232 42.44V43H18.2672V42.44C18.5765 42.4187 18.8219 42.3867 19.0032 42.344C19.1845 42.3013 19.3232 42.216 19.4192 42.088C19.5152 41.96 19.5739 41.7787 19.5952 41.544C19.6272 41.2987 19.6432 40.9733 19.6432 40.568V38.52C19.6432 37.912 19.6325 37.4053 19.6112 37C19.6005 36.5947 19.5739 36.3173 19.5312 36.168C19.4992 36.0293 19.4619 35.9227 19.4192 35.848C19.3765 35.7627 19.3072 35.6987 19.2112 35.656C19.1152 35.6027 18.9872 35.5707 18.8272 35.56C18.6779 35.5387 18.4805 35.528 18.2352 35.528V34.968L20.8432 34.36L21.0512 35.96H21.1312C21.6112 35.416 22.1125 35.016 22.6352 34.76C23.1685 34.4933 23.7552 34.36 24.3952 34.36C25.0672 34.36 25.6325 34.4987 26.0912 34.776C26.5499 35.0427 26.8699 35.432 27.0512 35.944H27.1152C27.5099 35.4427 27.9899 35.0533 28.5552 34.776C29.1205 34.4987 29.7232 34.36 30.3632 34.36C30.8645 34.36 31.3179 34.4453 31.7232 34.616C32.1392 34.776 32.4539 35 32.6672 35.288C32.8592 35.5333 32.9925 35.8587 33.0672 36.264C33.1525 36.6587 33.1952 37.2027 33.1952 37.896V40.44C33.1952 40.8773 33.2059 41.224 33.2272 41.48C33.2592 41.736 33.3179 41.9333 33.4032 42.072C33.4885 42.2107 33.6165 42.3013 33.7872 42.344C33.9685 42.3867 34.2139 42.4187 34.5232 42.44V43H30.2672V42.44C30.5659 42.4293 30.8059 42.4027 30.9872 42.36C31.1685 42.3067 31.3072 42.216 31.4032 42.088C31.4992 41.9493 31.5579 41.7627 31.5792 41.528C31.6112 41.2933 31.6272 40.9733 31.6272 40.568V38.552C31.6272 37.944 31.5952 37.432 31.5312 37.016C31.4672 36.5893 31.3605 36.248 31.2112 35.992C31.0619 35.7253 30.8645 35.5333 30.6192 35.416C30.3845 35.2987 30.0965 35.24 29.7552 35.24C29.2859 35.24 28.8432 35.3733 28.4272 35.64C28.0219 35.896 27.7019 36.2427 27.4672 36.68C27.4139 36.7867 27.3659 36.8933 27.3232 37C27.2912 37.096 27.2645 37.208 27.2432 37.336C27.2219 37.4533 27.2059 37.5973 27.1952 37.768C27.1952 37.9387 27.1952 38.152 27.1952 38.408V40.44C27.1952 40.8773 27.2059 41.224 27.2272 41.48C27.2485 41.736 27.3019 41.9333 27.3872 42.072C27.4832 42.2107 27.6219 42.3013 27.8032 42.344C27.9845 42.3867 28.2299 42.4187 28.5392 42.44V43H24.2832V42.44C24.5819 42.4187 24.8219 42.3867 25.0032 42.344C25.1845 42.3013 25.3179 42.216 25.4032 42.088C25.4992 41.96 25.5579 41.7787 25.5792 41.544C25.6112 41.2987 25.6272 40.9733 25.6272 40.568V38.552C25.6272 37.9333 25.5952 37.416 25.5312 37C25.4672 36.5733 25.3605 36.232 25.2112 35.976C25.0725 35.7093 24.8859 35.5227 24.6512 35.416C24.4165 35.2987 24.1285 35.24 23.7872 35.24C23.3072 35.24 22.8539 35.3733 22.4272 35.64C22.0112 35.896 21.6965 36.2427 21.4832 36.68C21.4299 36.7867 21.3819 36.8933 21.3392 37C21.3072 37.096 21.2805 37.208 21.2592 37.336C21.2379 37.4533 21.2219 37.5973 21.2112 37.768C21.2112 37.9387 21.2112 38.152 21.2112 38.408V40.44ZM38.5751 40.44C38.5751 40.888 38.5857 41.24 38.6071 41.496C38.6284 41.752 38.6817 41.9493 38.7671 42.088C38.8631 42.216 38.9964 42.3013 39.1671 42.344C39.3377 42.3867 39.5777 42.4187 39.8871 42.44V43H35.6311V42.44C35.9404 42.4187 36.1857 42.3867 36.3671 42.344C36.5484 42.3013 36.6871 42.216 36.7831 42.088C36.8791 41.96 36.9377 41.7787 36.9591 41.544C36.9911 41.2987 37.0071 40.9733 37.0071 40.568V38.52C37.0071 37.912 36.9964 37.4053 36.9751 37C36.9644 36.5947 36.9377 36.3173 36.8951 36.168C36.8631 36.0293 36.8257 35.9227 36.7831 35.848C36.7404 35.7627 36.6711 35.6987 36.5751 35.656C36.4791 35.6027 36.3511 35.5707 36.1911 35.56C36.0417 35.5387 35.8444 35.528 35.5991 35.528V34.968L38.2071 34.36L38.4151 35.96H38.4951C38.9751 35.416 39.4764 35.016 39.9991 34.76C40.5324 34.4933 41.1191 34.36 41.7591 34.36C42.4311 34.36 42.9964 34.4987 43.4551 34.776C43.9137 35.0427 44.2337 35.432 44.4151 35.944H44.4791C44.8737 35.4427 45.3537 35.0533 45.9191 34.776C46.4844 34.4987 47.0871 34.36 47.7271 34.36C48.2284 34.36 48.6817 34.4453 49.0871 34.616C49.5031 34.776 49.8177 35 50.0311 35.288C50.2231 35.5333 50.3564 35.8587 50.4311 36.264C50.5164 36.6587 50.5591 37.2027 50.5591 37.896V40.44C50.5591 40.8773 50.5697 41.224 50.5911 41.48C50.6231 41.736 50.6817 41.9333 50.7671 42.072C50.8524 42.2107 50.9804 42.3013 51.1511 42.344C51.3324 42.3867 51.5777 42.4187 51.8871 42.44V43H47.6311V42.44C47.9297 42.4293 48.1697 42.4027 48.3511 42.36C48.5324 42.3067 48.6711 42.216 48.7671 42.088C48.8631 41.9493 48.9217 41.7627 48.9431 41.528C48.9751 41.2933 48.9911 40.9733 48.9911 40.568V38.552C48.9911 37.944 48.9591 37.432 48.8951 37.016C48.8311 36.5893 48.7244 36.248 48.5751 35.992C48.4257 35.7253 48.2284 35.5333 47.9831 35.416C47.7484 35.2987 47.4604 35.24 47.1191 35.24C46.6497 35.24 46.2071 35.3733 45.7911 35.64C45.3857 35.896 45.0657 36.2427 44.8311 36.68C44.7777 36.7867 44.7297 36.8933 44.6871 37C44.6551 37.096 44.6284 37.208 44.6071 37.336C44.5857 37.4533 44.5697 37.5973 44.5591 37.768C44.5591 37.9387 44.5591 38.152 44.5591 38.408V40.44C44.5591 40.8773 44.5697 41.224 44.5911 41.48C44.6124 41.736 44.6657 41.9333 44.7511 42.072C44.8471 42.2107 44.9857 42.3013 45.1671 42.344C45.3484 42.3867 45.5937 42.4187 45.9031 42.44V43H41.6471V42.44C41.9457 42.4187 42.1857 42.3867 42.3671 42.344C42.5484 42.3013 42.6817 42.216 42.7671 42.088C42.8631 41.96 42.9217 41.7787 42.9431 41.544C42.9751 41.2987 42.9911 40.9733 42.9911 40.568V38.552C42.9911 37.9333 42.9591 37.416 42.8951 37C42.8311 36.5733 42.7244 36.232 42.5751 35.976C42.4364 35.7093 42.2497 35.5227 42.0151 35.416C41.7804 35.2987 41.4924 35.24 41.1511 35.24C40.6711 35.24 40.2177 35.3733 39.7911 35.64C39.3751 35.896 39.0604 36.2427 38.8471 36.68C38.7937 36.7867 38.7457 36.8933 38.7031 37C38.6711 37.096 38.6444 37.208 38.6231 37.336C38.6017 37.4533 38.5857 37.5973 38.5751 37.768C38.5751 37.9387 38.5751 38.152 38.5751 38.408V40.44ZM57.9869 38.264C57.3789 38.4987 56.8616 38.728 56.4349 38.952C56.0189 39.176 55.6829 39.4 55.4269 39.624C55.1709 39.848 54.9843 40.072 54.8669 40.296C54.7603 40.52 54.7069 40.7493 54.7069 40.984C54.7069 41.336 54.8243 41.624 55.0589 41.848C55.2936 42.072 55.6029 42.184 55.9869 42.184C56.2643 42.184 56.5203 42.1147 56.7549 41.976C57.0003 41.8373 57.2136 41.6507 57.3949 41.416C57.5763 41.1707 57.7203 40.888 57.8269 40.568C57.9336 40.2373 57.9869 39.8907 57.9869 39.528V38.264ZM57.9869 37.576V36.92C57.9869 35.6187 57.4323 34.968 56.3229 34.968C56.1416 34.968 55.9869 34.984 55.8589 35.016C55.7309 35.048 55.6243 35.1013 55.5389 35.176C55.4536 35.2507 55.3736 35.3573 55.2989 35.496C55.2349 35.6347 55.1709 35.8053 55.1069 36.008C54.9896 36.3173 54.8723 36.5253 54.7549 36.632C54.6483 36.728 54.4883 36.776 54.2749 36.776C53.7416 36.776 53.4749 36.5093 53.4749 35.976C53.4749 35.464 53.7469 35.0693 54.2909 34.792C54.8349 34.504 55.6083 34.36 56.6109 34.36C57.6776 34.36 58.4349 34.552 58.8829 34.936C59.3309 35.3093 59.5549 35.9493 59.5549 36.856V40.44C59.5549 41.656 59.7949 42.264 60.2749 42.264C60.4243 42.264 60.5683 42.248 60.7069 42.216C60.8456 42.1733 60.9629 42.072 61.0589 41.912L61.2829 42.296C61.1549 42.5413 60.9203 42.7493 60.5789 42.92C60.2376 43.08 59.8803 43.16 59.5069 43.16C59.0376 43.16 58.6856 43.0107 58.4509 42.712C58.2269 42.4133 58.1149 41.992 58.1149 41.448H58.0349C57.7576 41.9707 57.3736 42.3867 56.8829 42.696C56.3923 42.9947 55.8483 43.144 55.2509 43.144C54.5789 43.144 54.0509 42.9733 53.6669 42.632C53.2829 42.2907 53.0909 41.832 53.0909 41.256C53.0909 41 53.1336 40.7547 53.2189 40.52C53.3149 40.2853 53.4643 40.0613 53.6669 39.848C53.8696 39.6347 54.1363 39.4267 54.4669 39.224C54.7976 39.0107 55.2029 38.7973 55.6829 38.584L57.9869 37.576ZM62.5263 42.12C62.5263 41.8213 62.6276 41.5707 62.8303 41.368C63.033 41.1653 63.2783 41.064 63.5663 41.064C63.865 41.064 64.1156 41.1653 64.3183 41.368C64.521 41.5707 64.6223 41.8213 64.6223 42.12C64.6223 42.408 64.521 42.6533 64.3183 42.856C64.1156 43.0587 63.865 43.16 63.5663 43.16C63.2783 43.16 63.033 43.0587 62.8303 42.856C62.6276 42.6533 62.5263 42.408 62.5263 42.12Z" fill="black"/>
</svg>
