<svg width="300" height="308" viewBox="0 0 300 308" fill="none" xmlns="http://www.w3.org/2000/svg">
<path d="M236.664 47.3424C192.847 49.5993 180.827 11.1823 143.912 2.18806C104.599 -7.39479 86.8549 16.447 82.6535 35.9405C79.4148 50.9673 72.6073 57.4901 54.6658 61.6683C41.8779 64.0144 30.5466 70.6601 33.5146 88.8887C36.4826 107.117 30.4666 118.002 21.5112 124.522C12.5557 131.044 4.20057 140.303 1.26196 152.364C-3.71534 172.782 6.40285 194.167 25.0511 203.649C46.0067 214.077 57.2611 225.493 55.7892 249.169C55.4214 255.086 57.8908 286.569 87.8523 277.053C95.4195 274.65 126.723 258.441 145.72 288.524C150.45 296.014 162.163 303.385 172.866 305.997C201.568 312.991 230.913 291.832 233.827 262.698C236.987 241.141 240.909 231.032 264.212 238.562C287.27 246.012 301.069 213.918 288.167 197.454C270.261 178.898 291.628 145.526 298.413 117.68C307.688 79.6185 274.91 43.1971 236.664 47.3424Z" fill="#B36F6A"/>
</svg>
