<svg xmlns="http://www.w3.org/2000/svg" xmlns:xlink="http://www.w3.org/1999/xlink" width="500" zoomAndPan="magnify" viewBox="0 0 375 374.999991" height="500" preserveAspectRatio="xMidYMid meet" version="1.0"><defs><g/><clipPath id="1c21b185a8"><path d="M 47 48.816406 L 328 48.816406 L 328 326 L 47 326 Z M 47 48.816406 " clip-rule="nonzero"/></clipPath></defs><g clip-path="url(#1c21b185a8)"><path fill="#645cff" d="M 278.519531 81.914062 C 276.9375 80.585938 275.234375 79.433594 273.410156 78.457031 C 271.589844 77.484375 269.683594 76.707031 267.703125 76.128906 C 265.71875 75.550781 263.695312 75.183594 261.632812 75.027344 C 259.574219 74.867188 257.519531 74.925781 255.46875 75.195312 L 240.613281 77.054688 C 238.691406 77.300781 236.769531 77.320312 234.847656 77.105469 C 232.921875 76.894531 231.050781 76.457031 229.230469 75.796875 C 227.410156 75.136719 225.695312 74.273438 224.082031 73.199219 C 222.46875 72.128906 221.007812 70.882812 219.691406 69.460938 L 209.480469 58.429688 C 208.78125 57.671875 208.046875 56.953125 207.273438 56.273438 C 206.503906 55.59375 205.699219 54.957031 204.859375 54.359375 C 204.023438 53.761719 203.15625 53.210938 202.261719 52.703125 C 201.367188 52.195312 200.449219 51.734375 199.507812 51.320312 C 198.566406 50.910156 197.605469 50.546875 196.625 50.234375 C 195.644531 49.917969 194.652344 49.65625 193.644531 49.445312 C 192.636719 49.234375 191.621094 49.078125 190.601562 48.972656 C 189.578125 48.863281 188.550781 48.8125 187.523438 48.8125 C 186.492188 48.8125 185.46875 48.863281 184.445312 48.972656 C 183.421875 49.078125 182.40625 49.234375 181.398438 49.445312 C 180.394531 49.65625 179.398438 49.917969 178.417969 50.234375 C 177.441406 50.546875 176.480469 50.910156 175.535156 51.320312 C 174.59375 51.734375 173.675781 52.195312 172.78125 52.703125 C 171.886719 53.210938 171.019531 53.761719 170.183594 54.359375 C 169.34375 54.957031 168.539062 55.59375 167.769531 56.273438 C 166.996094 56.953125 166.261719 57.671875 165.566406 58.429688 L 155.351562 69.460938 C 154.035156 70.882812 152.574219 72.128906 150.960938 73.199219 C 149.347656 74.273438 147.632812 75.136719 145.8125 75.796875 C 143.992188 76.457031 142.121094 76.894531 140.199219 77.105469 C 138.273438 77.320312 136.351562 77.300781 134.429688 77.054688 L 119.574219 75.195312 C 118.554688 75.0625 117.527344 74.980469 116.5 74.949219 C 115.46875 74.921875 114.441406 74.945312 113.414062 75.023438 C 112.386719 75.101562 111.367188 75.234375 110.351562 75.417969 C 109.339844 75.601562 108.335938 75.835938 107.347656 76.125 C 106.359375 76.414062 105.386719 76.753906 104.433594 77.140625 C 103.480469 77.53125 102.546875 77.96875 101.640625 78.453125 C 100.730469 78.9375 99.851562 79.46875 98.996094 80.046875 C 98.144531 80.625 97.320312 81.242188 96.53125 81.90625 C 95.742188 82.566406 94.992188 83.269531 94.273438 84.007812 C 93.558594 84.75 92.882812 85.523438 92.246094 86.335938 C 91.609375 87.144531 91.019531 87.988281 90.46875 88.859375 C 89.921875 89.730469 89.421875 90.628906 88.964844 91.554688 C 88.511719 92.476562 88.105469 93.421875 87.746094 94.390625 C 87.390625 95.355469 87.082031 96.339844 86.828125 97.335938 C 86.574219 98.335938 86.371094 99.34375 86.222656 100.363281 C 86.070312 101.382812 85.972656 102.40625 85.929688 103.433594 L 85.164062 118.402344 C 85.074219 120.335938 84.753906 122.234375 84.210938 124.089844 C 83.664062 125.949219 82.90625 127.71875 81.9375 129.394531 C 80.96875 131.074219 79.8125 132.613281 78.476562 134.011719 C 77.136719 135.414062 75.652344 136.636719 74.023438 137.679688 L 61.460938 145.820312 C 60.589844 146.375 59.753906 146.96875 58.949219 147.609375 C 58.140625 148.25 57.371094 148.933594 56.636719 149.652344 C 55.898438 150.375 55.203125 151.128906 54.546875 151.921875 C 53.886719 152.714844 53.273438 153.539062 52.703125 154.394531 C 52.128906 155.25 51.605469 156.136719 51.125 157.046875 C 50.644531 157.957031 50.210938 158.890625 49.828125 159.84375 C 49.441406 160.800781 49.109375 161.773438 48.828125 162.761719 C 48.542969 163.753906 48.3125 164.753906 48.132812 165.769531 C 47.953125 166.785156 47.828125 167.804688 47.753906 168.832031 C 47.679688 169.859375 47.660156 170.886719 47.695312 171.914062 C 47.726562 172.945312 47.8125 173.96875 47.953125 174.988281 C 48.089844 176.007812 48.28125 177.019531 48.527344 178.019531 C 48.769531 179.019531 49.0625 180.003906 49.410156 180.976562 C 49.757812 181.945312 50.152344 182.894531 50.59375 183.824219 C 51.039062 184.753906 51.53125 185.65625 52.066406 186.535156 C 52.605469 187.414062 53.1875 188.261719 53.8125 189.078125 L 62.878906 201.039062 C 64.046875 202.582031 65.019531 204.238281 65.792969 206.011719 C 66.5625 207.785156 67.117188 209.621094 67.449219 211.527344 C 67.78125 213.433594 67.886719 215.351562 67.757812 217.28125 C 67.632812 219.210938 67.28125 221.097656 66.703125 222.941406 L 62.277344 237.308594 C 61.976562 238.289062 61.722656 239.285156 61.523438 240.292969 C 61.324219 241.300781 61.175781 242.316406 61.078125 243.339844 C 60.980469 244.363281 60.9375 245.386719 60.949219 246.414062 C 60.957031 247.441406 61.019531 248.464844 61.132812 249.488281 C 61.25 250.507812 61.417969 251.523438 61.636719 252.527344 C 61.855469 253.53125 62.125 254.519531 62.445312 255.496094 C 62.769531 256.472656 63.140625 257.429688 63.558594 258.367188 C 63.980469 259.304688 64.445312 260.21875 64.960938 261.109375 C 65.472656 262 66.03125 262.859375 66.632812 263.691406 C 67.238281 264.523438 67.878906 265.324219 68.566406 266.089844 C 69.25 266.855469 69.972656 267.585938 70.734375 268.277344 C 71.492188 268.96875 72.285156 269.617188 73.113281 270.226562 C 73.941406 270.835938 74.796875 271.402344 75.683594 271.925781 C 76.566406 272.445312 77.476562 272.921875 78.410156 273.351562 C 79.347656 273.777344 80.300781 274.15625 81.273438 274.488281 C 82.246094 274.816406 83.234375 275.09375 84.234375 275.324219 L 98.875 278.710938 C 100.765625 279.128906 102.578125 279.765625 104.316406 280.621094 C 106.054688 281.472656 107.667969 282.519531 109.15625 283.761719 C 110.640625 285 111.960938 286.398438 113.113281 287.953125 C 114.265625 289.511719 115.21875 291.179688 115.96875 292.964844 L 121.761719 306.839844 C 122.160156 307.785156 122.609375 308.707031 123.105469 309.605469 C 123.601562 310.507812 124.144531 311.378906 124.730469 312.222656 C 125.316406 313.066406 125.945312 313.878906 126.613281 314.660156 C 127.28125 315.4375 127.988281 316.183594 128.734375 316.890625 C 129.480469 317.597656 130.261719 318.265625 131.074219 318.890625 C 131.890625 319.519531 132.734375 320.101562 133.605469 320.644531 C 134.480469 321.183594 135.378906 321.679688 136.304688 322.125 C 137.230469 322.574219 138.175781 322.972656 139.140625 323.324219 C 140.105469 323.675781 141.085938 323.976562 142.085938 324.230469 C 143.082031 324.480469 144.085938 324.679688 145.105469 324.824219 C 146.121094 324.972656 147.144531 325.066406 148.171875 325.109375 C 149.195312 325.152344 150.222656 325.140625 151.25 325.078125 C 152.273438 325.015625 153.292969 324.902344 154.308594 324.734375 C 155.324219 324.566406 156.324219 324.347656 157.316406 324.078125 C 158.308594 323.804688 159.28125 323.484375 160.242188 323.113281 C 161.199219 322.746094 162.136719 322.324219 163.050781 321.859375 L 176.378906 314.976562 C 178.105469 314.089844 179.914062 313.414062 181.804688 312.957031 C 183.691406 312.5 185.605469 312.273438 187.550781 312.273438 C 189.492188 312.273438 191.40625 312.5 193.296875 312.957031 C 195.183594 313.414062 196.992188 314.089844 198.71875 314.976562 L 211.992188 321.859375 C 216.3125 324.074219 220.902344 325.183594 225.757812 325.191406 C 229.273438 325.195312 232.679688 324.574219 235.96875 323.335938 C 237.902344 322.625 239.746094 321.726562 241.496094 320.640625 C 243.246094 319.550781 244.867188 318.300781 246.359375 316.882812 C 247.851562 315.464844 249.1875 313.910156 250.363281 312.21875 C 251.539062 310.527344 252.53125 308.734375 253.339844 306.839844 L 259.074219 292.964844 C 259.832031 291.1875 260.789062 289.519531 261.945312 287.96875 C 263.101562 286.414062 264.421875 285.019531 265.90625 283.78125 C 267.394531 282.542969 269.003906 281.492188 270.738281 280.636719 C 272.472656 279.78125 274.28125 279.136719 276.171875 278.710938 L 290.808594 275.324219 C 291.808594 275.09375 292.796875 274.816406 293.769531 274.488281 C 294.746094 274.15625 295.699219 273.777344 296.632812 273.351562 C 297.566406 272.921875 298.476562 272.445312 299.363281 271.925781 C 300.246094 271.402344 301.101562 270.835938 301.929688 270.226562 C 302.757812 269.617188 303.550781 268.96875 304.3125 268.277344 C 305.070312 267.585938 305.792969 266.855469 306.476562 266.089844 C 307.164062 265.324219 307.808594 264.523438 308.410156 263.691406 C 309.011719 262.859375 309.570312 262 310.085938 261.109375 C 310.597656 260.21875 311.066406 259.304688 311.484375 258.367188 C 311.90625 257.429688 312.277344 256.472656 312.597656 255.496094 C 312.917969 254.519531 313.1875 253.53125 313.40625 252.527344 C 313.628906 251.523438 313.792969 250.507812 313.910156 249.488281 C 314.023438 248.464844 314.085938 247.441406 314.097656 246.414062 C 314.105469 245.386719 314.0625 244.363281 313.964844 243.339844 C 313.871094 242.316406 313.722656 241.300781 313.519531 240.292969 C 313.320312 239.285156 313.070312 238.289062 312.765625 237.308594 L 308.339844 222.941406 C 307.761719 221.097656 307.40625 219.207031 307.28125 217.273438 C 307.15625 215.34375 307.261719 213.421875 307.601562 211.515625 C 307.9375 209.609375 308.496094 207.773438 309.277344 206 C 310.058594 204.230469 311.039062 202.574219 312.21875 201.039062 L 321.285156 189.078125 C 321.90625 188.257812 322.484375 187.410156 323.019531 186.53125 C 323.554688 185.652344 324.039062 184.746094 324.480469 183.820312 C 324.921875 182.890625 325.316406 181.941406 325.65625 180.96875 C 326 180 326.292969 179.015625 326.535156 178.015625 C 326.777344 177.015625 326.964844 176.007812 327.101562 174.988281 C 327.238281 173.96875 327.324219 172.945312 327.355469 171.917969 C 327.386719 170.890625 327.367188 169.863281 327.292969 168.835938 C 327.21875 167.808594 327.09375 166.792969 326.914062 165.777344 C 326.734375 164.765625 326.503906 163.765625 326.222656 162.777344 C 325.941406 161.785156 325.609375 160.816406 325.226562 159.859375 C 324.84375 158.90625 324.414062 157.972656 323.933594 157.0625 C 323.457031 156.152344 322.929688 155.269531 322.363281 154.410156 C 321.792969 153.554688 321.179688 152.730469 320.527344 151.9375 C 319.871094 151.144531 319.175781 150.386719 318.445312 149.664062 C 317.710938 148.941406 316.945312 148.261719 316.140625 147.617188 C 315.339844 146.976562 314.503906 146.375 313.640625 145.820312 L 301.023438 137.679688 C 299.390625 136.640625 297.90625 135.417969 296.566406 134.019531 C 295.230469 132.617188 294.078125 131.078125 293.113281 129.402344 C 292.148438 127.722656 291.398438 125.953125 290.859375 124.09375 C 290.320312 122.234375 290.011719 120.335938 289.933594 118.402344 L 289.167969 103.433594 C 289.066406 101.371094 288.753906 99.339844 288.234375 97.34375 C 287.714844 95.34375 286.996094 93.417969 286.078125 91.570312 C 285.164062 89.71875 284.066406 87.980469 282.792969 86.351562 C 281.519531 84.726562 280.097656 83.246094 278.519531 81.914062 Z M 284.363281 118.671875 C 284.480469 121.050781 284.871094 123.378906 285.542969 125.660156 C 286.214844 127.941406 287.140625 130.113281 288.328125 132.175781 C 289.515625 134.234375 290.929688 136.128906 292.566406 137.851562 C 294.203125 139.578125 296.019531 141.085938 298.019531 142.378906 L 310.636719 150.515625 C 311.339844 150.96875 312.019531 151.453125 312.675781 151.976562 C 313.328125 152.5 313.953125 153.050781 314.550781 153.640625 C 315.148438 154.226562 315.714844 154.839844 316.246094 155.484375 C 316.78125 156.132812 317.28125 156.800781 317.742188 157.5 C 318.207031 158.195312 318.632812 158.914062 319.023438 159.65625 C 319.414062 160.394531 319.761719 161.15625 320.074219 161.933594 C 320.386719 162.707031 320.65625 163.5 320.882812 164.304688 C 321.113281 165.109375 321.300781 165.925781 321.445312 166.75 C 321.589844 167.574219 321.691406 168.402344 321.75 169.238281 C 321.808594 170.074219 321.824219 170.910156 321.796875 171.746094 C 321.769531 172.582031 321.699219 173.414062 321.582031 174.242188 C 321.46875 175.074219 321.3125 175.894531 321.113281 176.707031 C 320.914062 177.519531 320.675781 178.320312 320.390625 179.109375 C 320.109375 179.898438 319.789062 180.667969 319.425781 181.421875 C 319.066406 182.179688 318.664062 182.914062 318.226562 183.625 C 317.789062 184.339844 317.316406 185.027344 316.808594 185.691406 L 307.738281 197.652344 C 306.308594 199.554688 305.117188 201.597656 304.171875 203.78125 C 303.222656 205.96875 302.546875 208.234375 302.136719 210.578125 C 301.730469 212.925781 301.601562 215.285156 301.753906 217.660156 C 301.90625 220.035156 302.335938 222.363281 303.042969 224.636719 L 307.46875 238.945312 C 307.710938 239.746094 307.917969 240.558594 308.078125 241.382812 C 308.242188 242.203125 308.363281 243.03125 308.4375 243.867188 C 308.515625 244.703125 308.550781 245.539062 308.542969 246.375 C 308.53125 247.214844 308.480469 248.050781 308.386719 248.882812 C 308.292969 249.714844 308.15625 250.539062 307.976562 251.359375 C 307.796875 252.179688 307.574219 252.984375 307.3125 253.78125 C 307.050781 254.578125 306.75 255.359375 306.40625 256.121094 C 306.0625 256.886719 305.683594 257.632812 305.261719 258.359375 C 304.84375 259.085938 304.390625 259.785156 303.898438 260.464844 C 303.40625 261.144531 302.882812 261.796875 302.324219 262.421875 C 301.765625 263.046875 301.175781 263.640625 300.558594 264.207031 C 299.9375 264.769531 299.289062 265.300781 298.617188 265.800781 C 297.941406 266.296875 297.246094 266.761719 296.523438 267.1875 C 295.800781 267.613281 295.058594 268.003906 294.300781 268.351562 C 293.539062 268.703125 292.761719 269.011719 291.96875 269.285156 C 291.171875 269.554688 290.367188 269.78125 289.550781 269.96875 L 274.96875 273.246094 C 272.644531 273.773438 270.414062 274.566406 268.277344 275.628906 C 266.144531 276.691406 264.164062 277.988281 262.339844 279.523438 C 260.515625 281.054688 258.898438 282.785156 257.488281 284.707031 C 256.074219 286.628906 254.910156 288.6875 253.996094 290.890625 L 248.203125 304.652344 C 247.558594 306.210938 246.753906 307.683594 245.796875 309.074219 C 244.84375 310.464844 243.753906 311.738281 242.53125 312.902344 C 241.308594 314.0625 239.976562 315.085938 238.542969 315.96875 C 237.105469 316.851562 235.59375 317.578125 234.003906 318.144531 C 232.429688 318.726562 230.8125 319.140625 229.152344 319.382812 C 227.492188 319.628906 225.824219 319.695312 224.148438 319.585938 C 222.472656 319.476562 220.828125 319.195312 219.210938 318.742188 C 217.59375 318.289062 216.042969 317.667969 214.558594 316.890625 L 201.230469 310.0625 C 199.117188 308.96875 196.902344 308.136719 194.589844 307.574219 C 192.277344 307.011719 189.929688 306.730469 187.550781 306.730469 C 185.167969 306.730469 182.820312 307.011719 180.507812 307.574219 C 178.195312 308.136719 175.980469 308.96875 173.867188 310.0625 L 160.484375 316.890625 C 159 317.667969 157.449219 318.289062 155.832031 318.742188 C 154.21875 319.195312 152.570312 319.476562 150.898438 319.585938 C 149.222656 319.695312 147.554688 319.628906 145.894531 319.382812 C 144.230469 319.140625 142.613281 318.726562 141.039062 318.144531 C 139.457031 317.574219 137.953125 316.84375 136.519531 315.957031 C 135.089844 315.074219 133.765625 314.050781 132.546875 312.886719 C 131.328125 311.726562 130.246094 310.453125 129.292969 309.066406 C 128.339844 307.679688 127.539062 306.207031 126.894531 304.652344 L 121.105469 290.890625 C 120.1875 288.683594 119.019531 286.621094 117.605469 284.695312 C 116.191406 282.769531 114.570312 281.039062 112.742188 279.503906 C 110.910156 277.96875 108.925781 276.675781 106.785156 275.617188 C 104.644531 274.558594 102.40625 273.769531 100.074219 273.246094 L 85.546875 269.96875 C 83.902344 269.597656 82.3125 269.058594 80.777344 268.359375 C 79.242188 267.65625 77.796875 266.804688 76.4375 265.804688 C 75.078125 264.800781 73.839844 263.671875 72.714844 262.414062 C 71.589844 261.15625 70.605469 259.796875 69.761719 258.335938 C 68.914062 256.886719 68.226562 255.363281 67.699219 253.765625 C 67.167969 252.171875 66.8125 250.539062 66.628906 248.867188 C 66.445312 247.199219 66.441406 245.527344 66.609375 243.855469 C 66.777344 242.183594 67.117188 240.546875 67.632812 238.945312 L 72.054688 224.636719 C 72.75 222.359375 73.171875 220.03125 73.316406 217.65625 C 73.460938 215.28125 73.328125 212.917969 72.914062 210.574219 C 72.503906 208.230469 71.820312 205.964844 70.875 203.78125 C 69.925781 201.597656 68.734375 199.554688 67.304688 197.652344 L 58.238281 185.691406 C 57.726562 185.027344 57.25 184.339844 56.8125 183.625 C 56.375 182.910156 55.972656 182.175781 55.609375 181.421875 C 55.246094 180.664062 54.925781 179.894531 54.644531 179.105469 C 54.359375 178.316406 54.121094 177.515625 53.921875 176.699219 C 53.722656 175.886719 53.566406 175.066406 53.453125 174.234375 C 53.335938 173.40625 53.265625 172.570312 53.238281 171.734375 C 53.214844 170.894531 53.230469 170.058594 53.289062 169.222656 C 53.347656 168.386719 53.453125 167.558594 53.597656 166.730469 C 53.742188 165.90625 53.933594 165.09375 54.164062 164.285156 C 54.394531 163.480469 54.664062 162.691406 54.980469 161.914062 C 55.292969 161.136719 55.644531 160.375 56.035156 159.636719 C 56.425781 158.894531 56.855469 158.175781 57.324219 157.480469 C 57.789062 156.785156 58.289062 156.113281 58.828125 155.46875 C 59.363281 154.828125 59.929688 154.210938 60.53125 153.625 C 61.128906 153.042969 61.757812 152.488281 62.417969 151.96875 C 63.074219 151.449219 63.757812 150.964844 64.464844 150.515625 L 77.027344 142.378906 C 79.023438 141.085938 80.839844 139.574219 82.480469 137.851562 C 84.121094 136.125 85.535156 134.230469 86.726562 132.171875 C 87.917969 130.113281 88.851562 127.941406 89.53125 125.660156 C 90.207031 123.378906 90.609375 121.050781 90.734375 118.671875 L 91.445312 103.707031 C 91.527344 102.027344 91.78125 100.371094 92.203125 98.742188 C 92.625 97.113281 93.210938 95.542969 93.960938 94.035156 C 94.707031 92.527344 95.601562 91.109375 96.640625 89.785156 C 97.679688 88.460938 98.84375 87.257812 100.128906 86.175781 C 101.410156 85.085938 102.792969 84.144531 104.273438 83.347656 C 105.753906 82.550781 107.300781 81.917969 108.914062 81.445312 C 110.53125 80.976562 112.175781 80.679688 113.851562 80.554688 C 115.527344 80.433594 117.199219 80.484375 118.863281 80.710938 L 133.722656 82.570312 C 136.089844 82.871094 138.457031 82.890625 140.832031 82.625 C 143.203125 82.359375 145.507812 81.816406 147.75 81 C 149.992188 80.183594 152.109375 79.113281 154.09375 77.789062 C 156.082031 76.46875 157.882812 74.929688 159.503906 73.175781 L 169.660156 62.25 C 170.226562 61.632812 170.824219 61.042969 171.453125 60.488281 C 172.078125 59.929688 172.734375 59.40625 173.417969 58.917969 C 174.097656 58.429688 174.804688 57.976562 175.53125 57.5625 C 176.261719 57.144531 177.007812 56.769531 177.777344 56.429688 C 178.542969 56.09375 179.328125 55.796875 180.125 55.539062 C 180.925781 55.28125 181.734375 55.066406 182.554688 54.894531 C 183.378906 54.722656 184.203125 54.59375 185.039062 54.503906 C 185.875 54.417969 186.710938 54.375 187.550781 54.375 C 188.386719 54.375 189.226562 54.417969 190.058594 54.503906 C 190.894531 54.59375 191.722656 54.722656 192.542969 54.894531 C 193.363281 55.066406 194.171875 55.28125 194.972656 55.539062 C 195.769531 55.796875 196.554688 56.09375 197.320312 56.429688 C 198.089844 56.769531 198.839844 57.144531 199.566406 57.5625 C 200.296875 57.976562 201 58.429688 201.683594 58.917969 C 202.363281 59.40625 203.019531 59.929688 203.644531 60.488281 C 204.273438 61.042969 204.871094 61.632812 205.4375 62.25 L 215.597656 73.175781 C 217.214844 74.929688 219.015625 76.46875 221.003906 77.789062 C 222.988281 79.113281 225.105469 80.183594 227.347656 81 C 229.589844 81.816406 231.894531 82.359375 234.269531 82.625 C 236.640625 82.890625 239.007812 82.871094 241.378906 82.570312 L 256.234375 80.710938 C 257.898438 80.496094 259.570312 80.449219 261.242188 80.578125 C 262.917969 80.707031 264.5625 81.007812 266.175781 81.476562 C 267.789062 81.945312 269.335938 82.578125 270.816406 83.367188 C 272.296875 84.160156 273.679688 85.09375 274.96875 86.175781 C 276.253906 87.261719 277.414062 88.46875 278.449219 89.792969 C 279.488281 91.117188 280.378906 92.535156 281.125 94.042969 C 281.871094 95.550781 282.460938 97.117188 282.882812 98.746094 C 283.308594 100.375 283.566406 102.027344 283.652344 103.707031 Z M 284.363281 118.671875 " fill-opacity="1" fill-rule="nonzero"/></g><g fill="#645cff" fill-opacity="1"><g transform="translate(92.17962, 204.820417)"><g><path d="M 9.21875 -14.34375 C 9.34375 -11.175781 10.320312 -8.632812 12.15625 -6.71875 C 13.988281 -4.800781 16.550781 -3.84375 19.84375 -3.84375 C 21.332031 -3.84375 22.628906 -4.007812 23.734375 -4.34375 C 24.847656 -4.6875 25.800781 -5.15625 26.59375 -5.75 C 27.382812 -6.351562 28.023438 -7.050781 28.515625 -7.84375 C 29.003906 -8.632812 29.398438 -9.476562 29.703125 -10.375 L 34.4375 -9.09375 C 33.539062 -6.144531 31.882812 -3.742188 29.46875 -1.890625 C 27.0625 -0.0351562 23.8125 0.890625 19.71875 0.890625 C 17.445312 0.890625 15.363281 0.5 13.46875 -0.28125 C 11.570312 -1.070312 9.941406 -2.191406 8.578125 -3.640625 C 7.210938 -5.097656 6.144531 -6.828125 5.375 -8.828125 C 4.601562 -10.835938 4.21875 -13.054688 4.21875 -15.484375 L 4.21875 -17.03125 C 4.21875 -19.25 4.613281 -21.316406 5.40625 -23.234375 C 6.195312 -25.148438 7.296875 -26.800781 8.703125 -28.1875 C 10.109375 -29.570312 11.757812 -30.660156 13.65625 -31.453125 C 15.5625 -32.242188 17.625 -32.640625 19.84375 -32.640625 C 22.445312 -32.640625 24.695312 -32.160156 26.59375 -31.203125 C 28.488281 -30.242188 30.046875 -29.054688 31.265625 -27.640625 C 32.484375 -26.234375 33.378906 -24.695312 33.953125 -23.03125 C 34.523438 -21.375 34.8125 -19.84375 34.8125 -18.4375 L 34.8125 -14.34375 Z M 19.84375 -27.90625 C 18.4375 -27.90625 17.125 -27.679688 15.90625 -27.234375 C 14.6875 -26.785156 13.617188 -26.15625 12.703125 -25.34375 C 11.785156 -24.53125 11.035156 -23.578125 10.453125 -22.484375 C 9.878906 -21.398438 9.507812 -20.21875 9.34375 -18.9375 L 29.828125 -18.9375 C 29.742188 -20.300781 29.410156 -21.535156 28.828125 -22.640625 C 28.253906 -23.753906 27.507812 -24.695312 26.59375 -25.46875 C 25.675781 -26.238281 24.628906 -26.835938 23.453125 -27.265625 C 22.285156 -27.691406 21.082031 -27.90625 19.84375 -27.90625 Z M 19.84375 -27.90625 "/></g></g></g><g fill="#645cff" fill-opacity="1"><g transform="translate(133.905211, 204.820417)"><g><path d="M 36.09375 0 L 31.109375 0 L 31.109375 -22.78125 C 31.109375 -24.28125 30.765625 -25.507812 30.078125 -26.46875 C 29.398438 -27.425781 28.3125 -27.90625 26.8125 -27.90625 C 25.40625 -27.90625 24.265625 -27.378906 23.390625 -26.328125 C 22.515625 -25.285156 22.078125 -23.675781 22.078125 -21.5 L 22.078125 0 L 17.09375 0 L 17.09375 -23.046875 C 17.09375 -24.453125 16.707031 -25.613281 15.9375 -26.53125 C 15.164062 -27.445312 14.140625 -27.90625 12.859375 -27.90625 C 11.328125 -27.90625 10.144531 -27.347656 9.3125 -26.234375 C 8.476562 -25.128906 8.0625 -23.679688 8.0625 -21.890625 L 8.0625 0 L 3.078125 0 L 3.078125 -31.75 L 8.0625 -31.75 L 8.0625 -28.28125 L 8.828125 -28.28125 C 9.378906 -29.78125 10.1875 -30.878906 11.25 -31.578125 C 12.320312 -32.285156 13.585938 -32.640625 15.046875 -32.640625 C 16.578125 -32.640625 17.84375 -32.234375 18.84375 -31.421875 C 19.851562 -30.609375 20.546875 -29.5625 20.921875 -28.28125 L 21.703125 -28.28125 C 23.148438 -31.1875 25.453125 -32.640625 28.609375 -32.640625 C 30.992188 -32.640625 32.835938 -31.878906 34.140625 -30.359375 C 35.441406 -28.847656 36.09375 -26.878906 36.09375 -24.453125 Z M 36.09375 0 "/></g></g></g><g fill="#645cff" fill-opacity="1"><g transform="translate(175.630802, 204.820417)"><g><path d="M 36.09375 0 L 31.109375 0 L 31.109375 -22.78125 C 31.109375 -24.28125 30.765625 -25.507812 30.078125 -26.46875 C 29.398438 -27.425781 28.3125 -27.90625 26.8125 -27.90625 C 25.40625 -27.90625 24.265625 -27.378906 23.390625 -26.328125 C 22.515625 -25.285156 22.078125 -23.675781 22.078125 -21.5 L 22.078125 0 L 17.09375 0 L 17.09375 -23.046875 C 17.09375 -24.453125 16.707031 -25.613281 15.9375 -26.53125 C 15.164062 -27.445312 14.140625 -27.90625 12.859375 -27.90625 C 11.328125 -27.90625 10.144531 -27.347656 9.3125 -26.234375 C 8.476562 -25.128906 8.0625 -23.679688 8.0625 -21.890625 L 8.0625 0 L 3.078125 0 L 3.078125 -31.75 L 8.0625 -31.75 L 8.0625 -28.28125 L 8.828125 -28.28125 C 9.378906 -29.78125 10.1875 -30.878906 11.25 -31.578125 C 12.320312 -32.285156 13.585938 -32.640625 15.046875 -32.640625 C 16.578125 -32.640625 17.84375 -32.234375 18.84375 -31.421875 C 19.851562 -30.609375 20.546875 -29.5625 20.921875 -28.28125 L 21.703125 -28.28125 C 23.148438 -31.1875 25.453125 -32.640625 28.609375 -32.640625 C 30.992188 -32.640625 32.835938 -31.878906 34.140625 -30.359375 C 35.441406 -28.847656 36.09375 -26.878906 36.09375 -24.453125 Z M 36.09375 0 "/></g></g></g><g fill="#645cff" fill-opacity="1"><g transform="translate(217.356393, 204.820417)"><g><path d="M 28.609375 -5.375 L 27.84375 -5.375 C 26.8125 -3.238281 25.390625 -1.660156 23.578125 -0.640625 C 21.765625 0.378906 19.859375 0.890625 17.859375 0.890625 C 15.765625 0.890625 13.820312 0.539062 12.03125 -0.15625 C 10.238281 -0.863281 8.671875 -1.910156 7.328125 -3.296875 C 5.984375 -4.679688 4.925781 -6.375 4.15625 -8.375 C 3.394531 -10.382812 3.015625 -12.710938 3.015625 -15.359375 L 3.015625 -16.390625 C 3.015625 -18.984375 3.394531 -21.28125 4.15625 -23.28125 C 4.925781 -25.289062 5.984375 -26.988281 7.328125 -28.375 C 8.671875 -29.769531 10.238281 -30.828125 12.03125 -31.546875 C 13.820312 -32.273438 15.722656 -32.640625 17.734375 -32.640625 C 19.898438 -32.640625 21.867188 -32.160156 23.640625 -31.203125 C 25.410156 -30.242188 26.8125 -28.757812 27.84375 -26.75 L 28.609375 -26.75 L 28.609375 -31.75 L 33.59375 -31.75 L 33.59375 -6.53125 C 33.59375 -5.25 34.171875 -4.609375 35.328125 -4.609375 L 36.921875 -4.609375 L 36.921875 0 L 33.53125 0 C 32.082031 0 30.898438 -0.46875 29.984375 -1.40625 C 29.066406 -2.34375 28.609375 -3.535156 28.609375 -4.984375 Z M 18.375 -3.84375 C 19.863281 -3.84375 21.238281 -4.117188 22.5 -4.671875 C 23.757812 -5.222656 24.835938 -6.007812 25.734375 -7.03125 C 26.628906 -8.0625 27.332031 -9.289062 27.84375 -10.71875 C 28.351562 -12.144531 28.609375 -13.734375 28.609375 -15.484375 L 28.609375 -16.25 C 28.609375 -17.957031 28.351562 -19.523438 27.84375 -20.953125 C 27.332031 -22.390625 26.613281 -23.617188 25.6875 -24.640625 C 24.769531 -25.660156 23.679688 -26.457031 22.421875 -27.03125 C 21.171875 -27.613281 19.820312 -27.90625 18.375 -27.90625 C 16.875 -27.90625 15.503906 -27.625 14.265625 -27.0625 C 13.035156 -26.507812 11.957031 -25.734375 11.03125 -24.734375 C 10.113281 -23.734375 9.398438 -22.515625 8.890625 -21.078125 C 8.378906 -19.648438 8.125 -18.085938 8.125 -16.390625 L 8.125 -15.359375 C 8.125 -11.734375 9.070312 -8.90625 10.96875 -6.875 C 12.875 -4.851562 15.34375 -3.84375 18.375 -3.84375 Z M 18.375 -3.84375 "/></g></g></g><g fill="#645cff" fill-opacity="1"><g transform="translate(259.081984, 204.820417)"><g><path d="M 15.109375 -3.578125 C 15.109375 -4.816406 15.546875 -5.875 16.421875 -6.75 C 17.296875 -7.625 18.347656 -8.0625 19.578125 -8.0625 C 20.816406 -8.0625 21.875 -7.625 22.75 -6.75 C 23.625 -5.875 24.0625 -4.816406 24.0625 -3.578125 C 24.0625 -2.347656 23.625 -1.296875 22.75 -0.421875 C 21.875 0.453125 20.816406 0.890625 19.578125 0.890625 C 18.347656 0.890625 17.296875 0.453125 16.421875 -0.421875 C 15.546875 -1.296875 15.109375 -2.347656 15.109375 -3.578125 Z M 15.109375 -3.578125 "/></g></g></g></svg>